<svg width="42" height="42" viewBox="0 0 42 42" fill="none" xmlns="http://www.w3.org/2000/svg">
<g clip-path="url(#clip0_42_3228)">
<path d="M41.367 26.08C38.5623 37.3301 27.1678 44.1767 15.9163 41.3713C4.66958 38.5666 -2.17701 27.1713 0.628919 15.9221C3.43239 4.6708 14.8269 -2.17631 26.0749 0.628392C37.3255 3.43309 44.1717 14.8296 41.3667 26.0802L41.3669 26.08H41.367Z" fill="#F7931A"/>
<path d="M30.273 17.9878C30.691 15.1932 28.5633 13.691 25.6539 12.6888L26.5977 8.90323L24.2933 8.32903L23.3746 12.0149C22.7687 11.8639 22.1466 11.7215 21.5283 11.5803L22.4537 7.8701L20.1508 7.2959L19.2064 11.0803C18.7051 10.9661 18.2127 10.8533 17.735 10.7344L17.7376 10.7225L14.5598 9.92898L13.9468 12.3902C13.9468 12.3902 15.6565 12.7821 15.6205 12.8062C16.5536 13.0392 16.7224 13.6569 16.6944 14.1465L15.6192 18.4592C15.6835 18.4755 15.7668 18.4991 15.8588 18.5361C15.7819 18.517 15.7001 18.4961 15.6152 18.4758L14.1083 24.5172C13.9942 24.8007 13.7048 25.2262 13.0524 25.0647C13.0755 25.0981 11.3775 24.6467 11.3775 24.6467L10.2334 27.2845L13.2322 28.032C13.7901 28.172 14.3368 28.3183 14.8752 28.456L13.9216 32.285L16.2233 32.8592L17.1677 29.0708C17.7965 29.2415 18.4067 29.399 19.0041 29.5474L18.0629 33.3179L20.3674 33.8921L21.3209 30.0703C25.2504 30.814 28.2051 30.5141 29.4487 26.9599C30.4509 24.0983 29.3989 22.4478 27.3316 21.3714C28.8373 21.0242 29.9714 20.0339 30.2738 17.9881L30.2731 17.9876L30.273 17.9878ZM25.008 25.3707C24.2958 28.2323 19.4778 26.6854 17.9157 26.2975L19.1812 21.2248C20.7431 21.6147 25.7523 22.3864 25.0081 25.3707H25.008ZM25.7206 17.9464C25.071 20.5492 21.0609 19.2269 19.7601 18.9026L20.9074 14.3019C22.2082 14.6262 26.3974 15.2314 25.7208 17.9464H25.7206Z" fill="white"/>
</g>
<defs>
<clipPath id="clip0_42_3228">
<rect width="42" height="42" fill="white"/>
</clipPath>
</defs>
</svg>
