<svg width="56" height="56" viewBox="0 0 56 56" fill="none" xmlns="http://www.w3.org/2000/svg">
<rect width="56" height="56" rx="28" fill="#0F172A"/>
<path opacity="0.4" d="M28.0002 11.3335C23.6335 11.3335 20.0835 14.8835 20.0835 19.2502C20.0835 23.5335 23.4335 27.0002 27.8002 27.1502C27.9335 27.1335 28.0668 27.1335 28.1668 27.1502H28.2835C30.3324 27.0818 32.2745 26.2193 33.699 24.745C35.1235 23.2707 35.9188 21.3002 35.9168 19.2502C35.9168 14.8835 32.3668 11.3335 28.0002 11.3335Z" fill="#F4F6F9"/>
<path d="M36.4666 31.5833C31.8166 28.4833 24.2333 28.4833 19.5499 31.5833C17.4333 33 16.2666 34.9166 16.2666 36.9666C16.2666 39.0166 17.4333 40.9166 19.5333 42.3166C21.8666 43.8833 24.9333 44.6666 27.9999 44.6666C31.0666 44.6666 34.1333 43.8833 36.4666 42.3166C38.5666 40.9 39.7333 39 39.7333 36.9333C39.7166 34.8833 38.5666 32.9833 36.4666 31.5833Z" fill="#F4F6F9"/>
</svg>
