<svg width="36" height="36" viewBox="0 0 36 36" fill="none" xmlns="http://www.w3.org/2000/svg">
<rect width="36" height="36" rx="10" fill="url(#paint0_linear_234_660)"/>
<path fill-rule="evenodd" clip-rule="evenodd" d="M20.8499 25.0229C20.8499 25.765 21.8123 26.0564 22.2239 25.4389L27.6726 17.266C28.0048 16.7676 27.6475 16.1 27.0485 16.1H22.7499V10.9771C22.7499 10.235 21.7875 9.94363 21.3759 10.5611L15.9273 18.734C15.595 19.2324 15.9523 19.9 16.5513 19.9H20.8499V25.0229Z" fill="white"/>
<path opacity="0.3" fill-rule="evenodd" clip-rule="evenodd" d="M9.45029 12.7751C9.45029 11.9881 10.0883 11.3501 10.8753 11.3501H15.6253C16.4123 11.3501 17.0503 11.9881 17.0503 12.7751C17.0503 13.5621 16.4123 14.2001 15.6253 14.2001H10.8753C10.0883 14.2001 9.45029 13.5621 9.45029 12.7751ZM9.45029 24.1751C9.45029 23.3881 10.0883 22.7501 10.8753 22.7501H15.6253C16.4123 22.7501 17.0503 23.3881 17.0503 24.1751C17.0503 24.9621 16.4123 25.6001 15.6253 25.6001H10.8753C10.0883 25.6001 9.45029 24.9621 9.45029 24.1751ZM8.97529 17.0501C8.18829 17.0501 7.55029 17.6881 7.55029 18.4751C7.55029 19.2621 8.18829 19.9001 8.97529 19.9001H12.7753C13.5623 19.9001 14.2003 19.2621 14.2003 18.4751C14.2003 17.6881 13.5623 17.0501 12.7753 17.0501H8.97529Z" fill="white"/>
<defs>
<linearGradient id="paint0_linear_234_660" x1="2.95635e-07" y1="33.975" x2="48.7346" y2="26.1751" gradientUnits="userSpaceOnUse">
<stop stop-color="#47DDC2"/>
<stop offset="1" stop-color="#C1FFC8"/>
</linearGradient>
</defs>
</svg>
