<svg width="24" height="24" viewBox="0 0 24 24" fill="none" xmlns="http://www.w3.org/2000/svg">
<path d="M21.8474 2.3686H19.5557V1.42435C19.5557 1.22403 19.4752 1.03181 19.332 0.89017C19.1888 0.748535 18.9944 0.668945 18.7918 0.668945H5.04182C4.83926 0.668945 4.64487 0.748535 4.50164 0.89017C4.35842 1.03181 4.27793 1.22403 4.27793 1.42435V2.3686H1.98627C1.58114 2.3686 1.19253 2.52778 0.905916 2.81105C0.619458 3.0945 0.458496 3.47878 0.458496 3.87941V6.90102C0.458496 7.70243 0.78042 8.471 1.35351 9.03755C1.92643 9.60428 2.70363 9.92263 3.51405 9.92263H4.27793V10.965C4.27862 11.7575 4.53114 12.5296 5.00005 13.1722C5.46877 13.8148 6.13021 14.2954 6.89052 14.5457L9.38852 15.3691L8.95303 18.7986H8.09739C7.48951 18.7986 6.90673 19.0373 6.47686 19.4622C6.04717 19.8873 5.80573 20.4636 5.80573 21.0648V22.5756C5.80573 22.7759 5.88621 22.9681 6.02944 23.1098C6.17266 23.2514 6.36705 23.331 6.56962 23.331H17.264C17.4666 23.331 17.661 23.2514 17.8042 23.1098C17.9474 22.9681 18.0279 22.7759 18.0279 22.5756V21.0648C18.0279 20.4636 17.7865 19.8873 17.3568 19.4622C16.9269 19.0373 16.3441 18.7986 15.7363 18.7986H14.8806L14.4451 15.3691L16.9431 14.5457C17.7034 14.2953 18.3648 13.8148 18.8336 13.1722C19.3025 12.5296 19.555 11.7575 19.5557 10.965V9.92263H20.3196C21.13 9.92263 21.9072 9.60428 22.4802 9.03755C23.0532 8.471 23.3752 7.70243 23.3752 6.90102V3.87941C23.3752 3.47878 23.2142 3.09448 22.9277 2.81105C22.6411 2.52778 22.2525 2.3686 21.8474 2.3686H21.8474ZM3.51405 8.41182C3.10892 8.41182 2.7203 8.25265 2.43369 7.96937C2.14723 7.68593 1.98627 7.30164 1.98627 6.90102V3.87941H4.27793V8.41182H3.51405ZM16.5001 21.0646V21.82H7.33349V21.0646C7.33349 20.8643 7.41397 20.6721 7.5572 20.5304C7.70042 20.3888 7.89481 20.3092 8.09737 20.3092H15.7363C15.9388 20.3092 16.1332 20.3888 16.2764 20.5304C16.4197 20.6721 16.5001 20.8643 16.5001 21.0646ZM13.3454 18.7984H10.4883L10.8626 15.8523L11.6723 16.1243C11.8309 16.1772 12.0028 16.1772 12.1614 16.1243L12.9711 15.8523L13.3454 18.7984ZM18.0278 10.9647C18.0297 11.4349 17.8835 11.8939 17.6099 12.2784C17.336 12.6626 16.9483 12.9533 16.5 13.1102L11.9551 14.621L7.41017 13.1102C6.94774 12.9663 6.54331 12.6812 6.25495 12.2956C5.96679 11.9101 5.80959 11.4442 5.80601 10.9647V2.17958H18.0282L18.0278 10.9647ZM21.8472 6.90067C21.8472 7.3013 21.6863 7.6856 21.3998 7.96903C21.1132 8.2523 20.7246 8.41148 20.3194 8.41148H19.5556V3.87906H21.8472V6.90067Z" fill="#F2F2F2"/>
</svg>
