<svg width="23" height="21" viewBox="0 0 23 21" fill="none" xmlns="http://www.w3.org/2000/svg">
<path d="M20.9146 3.72032L20.7016 2.41254C20.5978 1.75701 20.2601 1.17421 19.7638 0.793217C19.2673 0.412448 18.6529 0.265056 18.0571 0.383924L2.12486 3.48296C1.79654 3.54719 1.48529 3.69 1.213 3.90118C0.847243 4.11301 0.541122 4.43043 0.327323 4.81927C0.113534 5.2081 0.000395643 5.65354 0 6.10788V17.5683C0 18.2303 0.239551 18.8654 0.665745 19.3337C1.09174 19.802 1.66992 20.065 2.27246 20.065H20.2275C20.8303 20.065 21.4082 19.802 21.8345 19.3337C22.2606 18.8654 22.5 18.2303 22.5 17.5683V6.10788C22.5014 5.57623 22.3486 5.05809 22.0635 4.62878C21.7784 4.19924 21.3759 3.88095 20.9149 3.72027L20.9146 3.72032ZM21.0937 13.6486H19.588C19.2482 13.6595 18.9195 13.5134 18.682 13.2459C18.4561 12.9983 18.3319 12.6602 18.3384 12.3095C18.3596 11.9605 18.5042 11.6344 18.7416 11.401C18.979 11.1676 19.2899 11.0457 19.6081 11.0611H21.0965L21.0937 13.6486ZM18.3071 1.93184C18.5318 1.88569 18.764 1.94077 18.9516 2.08446C19.139 2.22836 19.2661 2.4489 19.3041 2.69663L19.4489 3.60491L9.68316 3.6047L18.3071 1.93184ZM20.23 18.5141H2.28101C2.05513 18.5141 1.83836 18.4155 1.67846 18.24C1.51877 18.0643 1.42881 17.8262 1.42881 17.578V6.10809C1.42821 5.93045 1.47359 5.7565 1.55958 5.60606C1.64557 5.45584 1.76881 5.33545 1.91464 5.25903C2.03115 5.1959 2.15954 5.16281 2.28952 5.16237H20.2674C20.4889 5.16977 20.6992 5.27144 20.8535 5.44626C21.0079 5.62108 21.0941 5.85512 21.0941 6.09873V9.50999H19.6255C18.9265 9.47407 18.2441 9.75056 17.7336 10.2768C17.2234 10.8027 16.9288 11.5336 16.9169 12.3023C16.9052 13.0711 17.1772 13.8124 17.6712 14.357C18.1673 14.9011 18.8392 15.2074 19.5403 15.2091H21.0941V17.5562V17.556C21.0994 17.811 21.0101 18.0572 20.8466 18.2379C20.6831 18.4188 20.4596 18.5185 20.2276 18.5141L20.23 18.5141Z" fill="white"/>
</svg>
